<svg width="20" height="41" viewBox="0 0 20 41" fill="none" xmlns="http://www.w3.org/2000/svg">
    <path d="M6.03718 40.344C2.19401 40.2211 0 38.1961 0 34.7439V16.2469C0 14.9479 1.00247 14.005 2.38492 14.005C3.76599 14.005 4.76846 14.9479 4.76846 16.2469V34.9574C4.76846 35.7797 5.00594 36.3132 6.1404 36.3837H6.15821C7.29815 36.3149 7.53745 35.7814 7.53745 34.9574V9.44407C7.53745 8.14673 8.53993 7.2038 9.92237 7.2038C11.3034 7.2038 12.3077 8.14673 12.3077 9.44407V34.7439C12.3077 38.1759 10.1384 40.1979 6.33678 40.3423L6.03718 40.344Z" fill="#14AACE"/>
    <path d="M19.9994 11.7282V2.25216C19.9994 0.90579 19.0949 0 17.6898 0C16.285 0 15.384 0.90579 15.384 2.25216V11.6167H15.3858V28.7274H15.384V38.0903C15.384 39.4384 16.285 40.3446 17.6898 40.3446C19.0848 40.3446 19.9822 39.4535 19.9959 38.1257H19.9977V38.114C19.9977 38.1054 19.9994 38.0989 19.9994 38.0903V28.6147H19.9977V11.7282H19.9994Z" fill="#6BC856"/>
</svg>
